<mxfile host="app.diagrams.net" modified="2022-10-07T13:52:11.856Z" agent="5.0 (Macintosh; Intel Mac OS X 10_15_7) AppleWebKit/537.36 (KHTML, like Gecko) Chrome/104.0.5112.126 Safari/537.36" etag="vtNUjwbz49lmwql52XvC" version="20.4.0" type="github">
  <diagram id="WPSB-9t8h4fIo2IHt0P5" name="Page-1">
    <mxGraphModel dx="1391" dy="805" grid="1" gridSize="10" guides="1" tooltips="1" connect="1" arrows="1" fold="1" page="1" pageScale="1" pageWidth="850" pageHeight="1100" math="0" shadow="0">
      <root>
        <mxCell id="0" />
        <mxCell id="1" parent="0" />
        <mxCell id="_h5XpuyKjl5ZHz13857e-3" value="ex:hasParent" style="edgeStyle=orthogonalEdgeStyle;rounded=0;orthogonalLoop=1;jettySize=auto;html=1;exitX=1;exitY=0.5;exitDx=0;exitDy=0;curved=1;labelBackgroundColor=#99FF99;" edge="1" parent="1" source="_h5XpuyKjl5ZHz13857e-1" target="_h5XpuyKjl5ZHz13857e-2">
          <mxGeometry relative="1" as="geometry" />
        </mxCell>
        <mxCell id="_h5XpuyKjl5ZHz13857e-1" value="person142" style="ellipse;whiteSpace=wrap;html=1;fillColor=#d5e8d4;strokeColor=#82b366;" vertex="1" parent="1">
          <mxGeometry x="240" y="310" width="80" height="30" as="geometry" />
        </mxCell>
        <mxCell id="_h5XpuyKjl5ZHz13857e-2" value="person629" style="ellipse;whiteSpace=wrap;html=1;fillColor=#d5e8d4;strokeColor=#82b366;" vertex="1" parent="1">
          <mxGeometry x="425" y="310" width="80" height="30" as="geometry" />
        </mxCell>
        <mxCell id="_h5XpuyKjl5ZHz13857e-5" value="ex:has1stRelative" style="edgeStyle=orthogonalEdgeStyle;rounded=0;orthogonalLoop=1;jettySize=auto;html=1;exitX=1;exitY=0.5;exitDx=0;exitDy=0;curved=1;entryX=0;entryY=0.5;entryDx=0;entryDy=0;labelBackgroundColor=#99FF99;" edge="1" parent="1" source="_h5XpuyKjl5ZHz13857e-1" target="_h5XpuyKjl5ZHz13857e-2">
          <mxGeometry relative="1" as="geometry">
            <mxPoint x="320" y="338" as="sourcePoint" />
            <mxPoint x="425" y="338" as="targetPoint" />
            <Array as="points">
              <mxPoint x="320" y="340" />
              <mxPoint x="425" y="340" />
            </Array>
          </mxGeometry>
        </mxCell>
        <mxCell id="_h5XpuyKjl5ZHz13857e-6" value="ex:hasRelative" style="edgeStyle=orthogonalEdgeStyle;rounded=0;orthogonalLoop=1;jettySize=auto;html=1;exitX=1;exitY=0.5;exitDx=0;exitDy=0;curved=1;entryX=0;entryY=0.5;entryDx=0;entryDy=0;labelBackgroundColor=#99FF99;" edge="1" parent="1" source="_h5XpuyKjl5ZHz13857e-1" target="_h5XpuyKjl5ZHz13857e-2">
          <mxGeometry relative="1" as="geometry">
            <mxPoint x="320" y="302" as="sourcePoint" />
            <mxPoint x="425" y="302" as="targetPoint" />
            <Array as="points">
              <mxPoint x="320" y="310" />
              <mxPoint x="425" y="310" />
            </Array>
          </mxGeometry>
        </mxCell>
        <mxCell id="_h5XpuyKjl5ZHz13857e-12" value="&lt;span data-reactroot=&quot;&quot; class=&quot;notion-enable-hover&quot; data-token-index=&quot;0&quot; style=&quot;&quot;&gt;Male&lt;/span&gt;" style="rounded=0;whiteSpace=wrap;html=1;" vertex="1" parent="1">
          <mxGeometry x="110" y="320" width="40" height="20" as="geometry" />
        </mxCell>
        <mxCell id="_h5XpuyKjl5ZHz13857e-15" value="&lt;span style=&quot;background-color: rgb(255, 204, 153);&quot;&gt;ex:hasCancer&lt;/span&gt;" style="edgeStyle=orthogonalEdgeStyle;rounded=0;orthogonalLoop=1;jettySize=auto;html=1;curved=1;labelBackgroundColor=#99FF99;entryX=1;entryY=0.5;entryDx=0;entryDy=0;exitX=0;exitY=0;exitDx=0;exitDy=0;" edge="1" parent="1" source="_h5XpuyKjl5ZHz13857e-1" target="_h5XpuyKjl5ZHz13857e-16">
          <mxGeometry x="0.2834" relative="1" as="geometry">
            <mxPoint x="280" y="280" as="sourcePoint" />
            <mxPoint x="170" y="280" as="targetPoint" />
            <Array as="points">
              <mxPoint x="190" y="314" />
              <mxPoint x="190" y="278" />
            </Array>
            <mxPoint as="offset" />
          </mxGeometry>
        </mxCell>
        <mxCell id="_h5XpuyKjl5ZHz13857e-16" value="Colorectal" style="rounded=0;whiteSpace=wrap;html=1;" vertex="1" parent="1">
          <mxGeometry x="110" y="270" width="60" height="15" as="geometry" />
        </mxCell>
        <mxCell id="_h5XpuyKjl5ZHz13857e-19" value="Lung" style="rounded=0;whiteSpace=wrap;html=1;" vertex="1" parent="1">
          <mxGeometry x="220" y="250" width="60" height="15" as="geometry" />
        </mxCell>
        <mxCell id="_h5XpuyKjl5ZHz13857e-20" value="&lt;span style=&quot;background-color: rgb(255, 204, 153);&quot;&gt;ex:hasCancer&lt;/span&gt;" style="edgeStyle=orthogonalEdgeStyle;rounded=0;orthogonalLoop=1;jettySize=auto;html=1;curved=1;labelBackgroundColor=#99FF99;entryX=0.5;entryY=1;entryDx=0;entryDy=0;exitX=0.5;exitY=0;exitDx=0;exitDy=0;" edge="1" parent="1" source="_h5XpuyKjl5ZHz13857e-1" target="_h5XpuyKjl5ZHz13857e-19">
          <mxGeometry relative="1" as="geometry">
            <mxPoint x="261.7157287525381" y="324.3933982822018" as="sourcePoint" />
            <mxPoint x="180" y="287.5" as="targetPoint" />
          </mxGeometry>
        </mxCell>
        <mxCell id="_h5XpuyKjl5ZHz13857e-24" value="45" style="rounded=0;whiteSpace=wrap;html=1;" vertex="1" parent="1">
          <mxGeometry x="125" y="375" width="30" height="15" as="geometry" />
        </mxCell>
        <mxCell id="_h5XpuyKjl5ZHz13857e-27" value="&lt;span style=&quot;background-color: rgb(255, 204, 153);&quot;&gt;ex:hasAge&lt;/span&gt;" style="edgeStyle=orthogonalEdgeStyle;rounded=0;orthogonalLoop=1;jettySize=auto;html=1;exitX=0;exitY=1;exitDx=0;exitDy=0;curved=1;labelBackgroundColor=#99FF99;entryX=0.5;entryY=0;entryDx=0;entryDy=0;" edge="1" parent="1" source="_h5XpuyKjl5ZHz13857e-1" target="_h5XpuyKjl5ZHz13857e-24">
          <mxGeometry relative="1" as="geometry">
            <mxPoint x="250" y="335" as="sourcePoint" />
            <mxPoint x="140" y="335" as="targetPoint" />
            <Array as="points">
              <mxPoint x="252" y="350" />
              <mxPoint x="140" y="350" />
            </Array>
          </mxGeometry>
        </mxCell>
        <mxCell id="_h5XpuyKjl5ZHz13857e-28" value="&lt;span style=&quot;background-color: rgb(255, 204, 153);&quot;&gt;ex:hasGender&lt;/span&gt;" style="edgeStyle=orthogonalEdgeStyle;rounded=0;orthogonalLoop=1;jettySize=auto;html=1;exitX=0.5;exitY=1;exitDx=0;exitDy=0;curved=1;labelBackgroundColor=#99FF99;entryX=0.5;entryY=0;entryDx=0;entryDy=0;" edge="1" parent="1" source="_h5XpuyKjl5ZHz13857e-2" target="_h5XpuyKjl5ZHz13857e-29">
          <mxGeometry relative="1" as="geometry">
            <mxPoint x="470" y="355" as="sourcePoint" />
            <mxPoint x="390" y="405" as="targetPoint" />
            <Array as="points">
              <mxPoint x="465" y="380" />
              <mxPoint x="465" y="380" />
            </Array>
          </mxGeometry>
        </mxCell>
        <mxCell id="_h5XpuyKjl5ZHz13857e-29" value="&lt;span data-reactroot=&quot;&quot; class=&quot;notion-enable-hover&quot; data-token-index=&quot;0&quot; style=&quot;&quot;&gt;Female&lt;/span&gt;" style="rounded=0;whiteSpace=wrap;html=1;" vertex="1" parent="1">
          <mxGeometry x="437.5" y="380" width="55" height="20" as="geometry" />
        </mxCell>
        <mxCell id="_h5XpuyKjl5ZHz13857e-31" value="ex:hasMutation" style="edgeStyle=orthogonalEdgeStyle;rounded=0;orthogonalLoop=1;jettySize=auto;html=1;exitX=0;exitY=0.5;exitDx=0;exitDy=0;curved=1;labelBackgroundColor=#99FF99;entryX=1;entryY=0.5;entryDx=0;entryDy=0;" edge="1" parent="1">
          <mxGeometry relative="1" as="geometry">
            <mxPoint x="770" y="160" as="sourcePoint" />
            <mxPoint x="660" y="160" as="targetPoint" />
          </mxGeometry>
        </mxCell>
        <mxCell id="_h5XpuyKjl5ZHz13857e-34" value="&lt;span style=&quot;background-color: rgb(255, 204, 153);&quot;&gt;ex:hasCancer&lt;/span&gt;" style="edgeStyle=orthogonalEdgeStyle;rounded=0;orthogonalLoop=1;jettySize=auto;html=1;exitX=0;exitY=0.5;exitDx=0;exitDy=0;curved=1;labelBackgroundColor=#99FF99;entryX=1;entryY=0.5;entryDx=0;entryDy=0;" edge="1" parent="1">
          <mxGeometry relative="1" as="geometry">
            <mxPoint x="770" y="190" as="sourcePoint" />
            <mxPoint x="660" y="190" as="targetPoint" />
          </mxGeometry>
        </mxCell>
        <mxCell id="_h5XpuyKjl5ZHz13857e-35" value="&lt;span style=&quot;background-color: rgb(255, 204, 153);&quot;&gt;ex:hasGender&lt;/span&gt;" style="edgeStyle=orthogonalEdgeStyle;rounded=0;orthogonalLoop=1;jettySize=auto;html=1;exitX=0;exitY=0.5;exitDx=0;exitDy=0;curved=1;labelBackgroundColor=#99FF99;entryX=1;entryY=0.5;entryDx=0;entryDy=0;" edge="1" parent="1">
          <mxGeometry relative="1" as="geometry">
            <mxPoint x="770" y="220" as="sourcePoint" />
            <mxPoint x="660" y="220" as="targetPoint" />
          </mxGeometry>
        </mxCell>
        <mxCell id="_h5XpuyKjl5ZHz13857e-36" value="&lt;span style=&quot;background-color: rgb(255, 204, 153);&quot;&gt;ex:hasAge&lt;/span&gt;" style="edgeStyle=orthogonalEdgeStyle;rounded=0;orthogonalLoop=1;jettySize=auto;html=1;exitX=0;exitY=0.5;exitDx=0;exitDy=0;curved=1;labelBackgroundColor=#99FF99;entryX=1;entryY=0.5;entryDx=0;entryDy=0;" edge="1" parent="1">
          <mxGeometry relative="1" as="geometry">
            <mxPoint x="770" y="250" as="sourcePoint" />
            <mxPoint x="660" y="250" as="targetPoint" />
          </mxGeometry>
        </mxCell>
        <mxCell id="_h5XpuyKjl5ZHz13857e-40" value="EGFR" style="ellipse;whiteSpace=wrap;html=1;fillColor=#d5e8d4;strokeColor=#82b366;" vertex="1" parent="1">
          <mxGeometry x="190" y="510" width="60" height="20" as="geometry" />
        </mxCell>
        <mxCell id="_h5XpuyKjl5ZHz13857e-41" value="BRCA1" style="ellipse;whiteSpace=wrap;html=1;fillColor=#d5e8d4;strokeColor=#82b366;" vertex="1" parent="1">
          <mxGeometry x="320" y="510" width="60" height="20" as="geometry" />
        </mxCell>
        <mxCell id="_h5XpuyKjl5ZHz13857e-44" value="ex:hasMutation" style="edgeStyle=orthogonalEdgeStyle;rounded=0;orthogonalLoop=1;jettySize=auto;html=1;exitX=0;exitY=0.5;exitDx=0;exitDy=0;curved=1;labelBackgroundColor=#99FF99;entryX=1;entryY=0.5;entryDx=0;entryDy=0;" edge="1" parent="1">
          <mxGeometry relative="1" as="geometry">
            <mxPoint x="530" y="130" as="sourcePoint" />
            <mxPoint x="420" y="130" as="targetPoint" />
          </mxGeometry>
        </mxCell>
        <mxCell id="_h5XpuyKjl5ZHz13857e-45" value="person629" style="ellipse;whiteSpace=wrap;html=1;fillColor=#d5e8d4;strokeColor=#82b366;" vertex="1" parent="1">
          <mxGeometry x="425" y="430" width="80" height="30" as="geometry" />
        </mxCell>
      </root>
    </mxGraphModel>
  </diagram>
</mxfile>
